<?xml version="1.0" encoding="utf-8"?>
<!-- Generator: Adobe Illustrator 27.2.0, SVG Export Plug-In . SVG Version: 6.00 Build 0)  -->
<svg version="1.1" id="Layer_1" xmlns="http://www.w3.org/2000/svg" xmlns:xlink="http://www.w3.org/1999/xlink" x="0px" y="0px"
	 width="524px" height="522.9px" viewBox="0 0 524 522.9" style="enable-background:new 0 0 524 522.9;" xml:space="preserve">
<style type="text/css">
	.st0{fill:#D982FF;}
	.st1{fill:#D964FF;}
	.st2{fill:#D9A4FF;}
	.st3{fill:#D94EFF;}
	.st4{fill:#D9004C;}
</style>
<path class="st0" d="M192,409.2c-19.9,7.5-40.2,11.3-61.1,9.7c-21.5-1.7-41.7-8.1-60.9-18.1c-23.9-12.5-39.5-25.6-43.8-29.6
	c-9-8.4-15.6-16.4-20.2-22.5c-0.5-1-1.1-2.7-1.3-4.8c-0.2-2.1,0.2-3.7,0.5-4.8c0.3-0.8,0.6-1.8,1.2-2.9c0,0,0.7-2.2,2.3-3.8
	c12.9-13.3,27.2-24.9,42.6-35.1c4.8-3.2,9.8-6,15.1-9.1c3.8-1.1,5.6,1.5,7.4,3.5c7.1,7.7,14.7,14.9,22.9,21.5
	c20,15.9,42.8,26.1,67.2,33c25,7.1,50.4,10.4,76.4,10c6.5-0.1,13-0.8,19.8,0.7c0.6,0.3,0.8,0.5,1.4,1c1.3,2.1,1.4,4.1,0.9,6.5
	c-5.3,8-12.9,13-20.1,18.2c-13.7,10.1-28.1,19.1-44,25.5C196.2,408.7,194.4,409.8,192,409.2z"/>
<path class="st1" d="M260.4,365.3c0.2-2.3,0.2-4.3,0.3-6.8c2.1-3.2,5.1-2.8,7.8-2.3c12.1,2.2,24.3,0.3,36.3-0.5
	c18.4-1.2,36.6-4.4,54.4-9.7c32.4-9.7,61.5-25.1,85-49.9c3-3.1,4.7-7.9,10.3-8.3c12.7,6.7,27.7,16.4,42.8,30.1
	c7.4,6.7,13.6,13.4,19,19.7c1.9,2.4,2.2,4.5,2.3,5.5c0.2,3.4-1.5,6-2.8,8c-1.3,2-2.6,3.2-3,3.6c-30.3,28.6-52.3,41.2-52.3,41.2
	c-6.5,3.7-13.3,7.1-20.2,10.2c-14.4,6.3-29.4,10.4-45.1,12.2c-22.4,2.6-43.7-1.1-64.9-9c-2.8,1.2-4.9-0.1-7-1
	c-21.4-9.2-40.7-21.8-58.3-36.9c-1.5-1.3-2.5-3.1-4.3-4.7C260.3,366.1,260.2,365.8,260.4,365.3z"/>
<path class="st0" d="M454.8,287.6c-5.3,3.6-8.2,9-12.4,13.2c-23.3,23.3-51.5,38-82.8,47.1c-21.1,6.1-42.7,9-64.7,10.3
	c-11.2,0.7-22.2-0.1-33.8-0.3c-0.5,0-0.5,0-0.5-0.1c-2.3-1.9-2.1-4.4-2.1-6.9c0-25.7-0.2-51.5,0.1-77.7
	c10.7-32.6,27.1-61.4,51.1-85.6c9.8-9.8,20.9-18,33.1-25.3c21.7-13.6,45.4-21,69.8-26.1c1.5-0.3,3-0.5,4.7,0.4
	c10.2-1.1,20-2.4,29.8-3.5c3.6-0.4,7.3-0.2,10.9-0.2c9.8,0,19.6,0.1,29.5,0c15.6-0.3,20.8,9.5,19,23.1c-2.1,14.7-5,29.3-8.9,43.7
	c-6.3,23-15,44.9-27.4,65.3C465.6,272.7,460.4,280.1,454.8,287.6z"/>
<path class="st2" d="M260.8,270.8c-0.2,28.9-0.2,57.6-0.2,86.7c-12.8,0.5-25.7,1.2-38.4,0.4c-30.7-1.9-60.4-8-88.8-20.4
	c-20-8.8-37.7-21-53.4-35.9c-4.4-4.2-8.1-9.2-13.1-13.4c-10.3-13.7-19.5-27.7-26.7-43c-9.2-19.6-15.9-40-20.5-61.1
	c-2.5-11.3-4.4-22.6-5.2-34.2c-0.6-8.7,6.1-16.3,14.8-16.7c14.6-0.6,29.3-0.6,43.9,0c9.9,0.4,19.6,2.5,29.9,3.8
	c1.7-0.4,3-0.8,4.3-0.5c24.6,5,48.2,12.6,70.1,25.9c21.3,12.2,38.5,28.5,52.8,47.8c13.2,17.8,23.2,37.2,30.5,58.5
	C261.1,269.5,261.1,270,260.8,270.8z"/>
<path class="st0" d="M260.8,268.7c-4.8-4.2-5.7-10.5-8.1-16c-16-36-39.2-65.9-72.9-87c-0.6-0.4-1.1-0.8-1.9-1.4
	c-2-2.1-1.4-4.3-1-6.4c4.4-21.1,11.8-41.2,22.1-60.1c0.5-0.9,1.1-1.7,2.3-2.4c8.2-13.7,16.5-26.9,26.3-39.1c5.2-6.5,10.4-13,16.2-19
	c3.5-3.6,5.9-8.1,11.3-9.5c1.6-0.4,3.1-0.6,5.1-0.7c2,1.3,2.5,3,2.5,4.9c0.1,2.2,0.1,4.3,0.1,6.5c0,71.8,0,143.7,0,215.5
	C262.8,258.9,262.4,263.6,260.8,268.7z"/>
<path class="st1" d="M260.5,269.4c0-2.1,0.1-4,0.1-5.8c0-78.5,0-157,0-236c6.1-1.6,10.5,2,14,6c8.2,9.3,16.6,18.4,23.7,28.6
	c7.5,10.5,14.9,21,21,32.8c2.7,1.1,3.7,3.2,4.8,5.3c8.8,17.2,15.6,35.1,19.9,53.9c0.7,3,1.9,6.1-0.1,9.5
	c-11.1,7.3-21.8,14.8-31.1,23.8c-21.6,20.9-36.7,46.2-48,73.8c-1.3,3.1-2.4,6.2-3.9,9.5C260.6,270.6,260.6,270.2,260.5,269.4z"/>
<path class="st1" d="M201.3,95c0,1.4-0.1,2.8-0.7,3.9c-10.9,20.3-18.4,41.7-22.9,64.7c-14.8-7.5-30-14.6-46.2-19.2
	c-9.1-2.6-18.3-4.7-27.7-7.3c2.6-23,7.4-45.3,15.2-66.9c2-5.5,10.1-11.7,19.7-8C160.8,70.5,181.8,81,201.3,95z"/>
<path class="st3" d="M344,163.8c-2.7-16.5-8.1-32.3-14.8-47.7c-3-6.8-6.3-13.5-9.5-20.6c15.4-11.2,31.8-20.2,49.2-27.6
	c5.5-2.4,10.8-4.9,16.8-6c7.7-1.5,15.3,4.3,17,9.5c5.8,17.4,10.4,35,13.1,53.2c0.6,3.8,0,7.9,1.8,11.9c-10.7,3.8-21.9,5.5-32.6,9.1
	C370.9,150.3,357.3,156.2,344,163.8z"/>
<path class="st1" d="M260.3,365.1c0.3,0,0.3,0.2,0.3,0.6c1.9,2.2,2.1,4.7,2.1,7.2c0,39.9,0.1,79.7,0,119.6c0,2,0.1,4-1.8,6
	c-6.3,1.5-10.5-2-14-5.8c-12.7-14-24.7-28.5-34.8-44.6c-7.7-12.3-14.9-24.9-20.6-38.7c13.6-6.6,26.9-13.2,39.4-21.6
	C241.2,381,250.9,373.5,260.3,365.1z"/>
<path class="st3" d="M261,498.9c-0.4-44-0.4-88-0.4-132.4c5.4,2.2,9.2,6.9,13.9,10.5c16.8,12.9,34.9,23.7,54.8,31.9
	c-7,18.7-17.2,35.5-28.8,51.6c-7,9.7-14.3,19.2-22.7,27.8c-3.6,3.7-6.4,8.1-11.7,9.9C264.6,498.8,263.1,498.9,261,498.9z"/>
<path class="st4" d="M4.6,336.5"/>
</svg>
