<?xml version="1.0" encoding="utf-8"?>
<!-- Generator: Adobe Illustrator 27.2.0, SVG Export Plug-In . SVG Version: 6.00 Build 0)  -->
<svg version="1.1" id="Layer_1" xmlns="http://www.w3.org/2000/svg" xmlns:xlink="http://www.w3.org/1999/xlink" x="0px" y="0px"
	 width="77.4px" height="77.3px" viewBox="0 0 77.4 77.3" style="enable-background:new 0 0 77.4 77.3;" xml:space="preserve">
<g>
	<g>
		
			<circle style="fill:none;stroke:#191970;stroke-width:2.1;stroke-linecap:round;stroke-linejoin:round;stroke-miterlimit:10;" cx="38.7" cy="38.7" r="20.2"/>
		<g>
			<path style="fill:none;stroke:#191970;stroke-width:2.1;stroke-linecap:round;stroke-linejoin:round;stroke-miterlimit:10;" d="
				M55.6,57.1L55.6,57.1c0.3-0.3,0.5-0.5,0.8-0.8c4.9-4.9,7.3-11.3,7.3-17.7c0-6.4-2.4-12.8-7.3-17.7c-0.2-0.2-0.5-0.5-0.8-0.7v0
				c10.9,0,12.9,9.3,14.4,12.3c1.5,3,5,6.1,5,6.1s-3.5,3.1-5,6.1C68.5,47.8,66.5,57.1,55.6,57.1z"/>
			<path style="fill:none;stroke:#191970;stroke-width:2.1;stroke-linecap:round;stroke-linejoin:round;stroke-miterlimit:10;" d="
				M21.8,20.3L21.8,20.3c-0.3,0.3-0.5,0.5-0.8,0.8c-4.9,4.9-7.3,11.3-7.3,17.7c0,6.4,2.4,12.8,7.3,17.7c0.2,0.2,0.5,0.5,0.8,0.7v0
				c-10.9,0-12.9-9.3-14.4-12.3c-1.5-3-5-6.1-5-6.1s3.5-3.1,5-6.1C8.8,29.6,10.9,20.3,21.8,20.3z"/>
		</g>
		
			<circle style="fill:none;stroke:#191970;stroke-width:2.1;stroke-linecap:round;stroke-linejoin:round;stroke-miterlimit:10;" cx="38.7" cy="38.7" r="24.9"/>
	</g>
	<g>
		<path style="fill:#191970;" d="M43.4,36.7c2.5-1.2,4.1-3,1.9-6.2c-2.8-4.2-7.9,0.1-9.8,2.7c-0.7,1,0.8,2.1,1.7,1.3
			c0.5-0.5,1-1,1.5-1.5c1.7-1.9,3.2-1.3,4.7,1.7c-1.4,0.8-2.9,1.5-4.3,2.3c-0.7,0.4-0.2,1.3,0.5,1.2c4.1-0.6,6.5,3.6,3.9,6.7
			c-1.7,2-4.5,1.2-6.4,0.1c-2.8-1.7-3.6-5.3-5.2-8c-0.4-0.7-1.3-0.2-1.2,0.5c0.8,5.5,7.2,14.8,13.7,9.6C48.2,44,47,38.1,43.4,36.7z"
			/>
	</g>
</g>
</svg>
