<?xml version="1.0" encoding="utf-8"?>
<!-- Generator: Adobe Illustrator 27.2.0, SVG Export Plug-In . SVG Version: 6.00 Build 0)  -->
<svg version="1.1" id="Layer_1" xmlns="http://www.w3.org/2000/svg" xmlns:xlink="http://www.w3.org/1999/xlink" x="0px" y="0px"
	 width="77.4px" height="77.3px" viewBox="0 0 77.4 77.3" style="enable-background:new 0 0 77.4 77.3;" xml:space="preserve">
<g>
	<g>
		
			<rect x="22.8" y="22.7" style="fill:none;stroke:#c80815;stroke-width:2.1;stroke-linecap:round;stroke-linejoin:round;stroke-miterlimit:10;" width="31.9" height="31.9"/>
		
			<circle style="fill:none;stroke:#c80815;stroke-width:2.1;stroke-linecap:round;stroke-linejoin:round;stroke-miterlimit:10;" cx="38.7" cy="38.7" r="20.2"/>
		<g>
			<path style="fill:none;stroke:#c80815;stroke-width:2.1;stroke-linecap:round;stroke-linejoin:round;stroke-miterlimit:10;" d="
				M55.6,57.1L55.6,57.1c0.3-0.3,0.5-0.5,0.8-0.8c4.9-4.9,7.3-11.3,7.3-17.7c0-6.4-2.4-12.8-7.3-17.7c-0.2-0.2-0.5-0.5-0.8-0.7v0
				c10.9,0,12.9,9.3,14.4,12.3c1.5,3,5,6.1,5,6.1s-3.5,3.1-5,6.1C68.5,47.8,66.5,57.1,55.6,57.1z"/>
			<path style="fill:none;stroke:#c80815;stroke-width:2.1;stroke-linecap:round;stroke-linejoin:round;stroke-miterlimit:10;" d="
				M57.1,21.8L57.1,21.8c-0.3-0.3-0.5-0.5-0.8-0.8c-4.9-4.9-11.3-7.3-17.7-7.3c-6.4,0-12.8,2.4-17.7,7.3c-0.2,0.2-0.5,0.5-0.7,0.8h0
				c0-10.9,9.3-12.9,12.3-14.4c3-1.5,6.1-5,6.1-5s3.1,3.5,6.1,5C47.8,8.8,57.1,10.9,57.1,21.8z"/>
			<path style="fill:none;stroke:#c80815;stroke-width:2.1;stroke-linecap:round;stroke-linejoin:round;stroke-miterlimit:10;" d="
				M21.8,20.3L21.8,20.3c-0.3,0.3-0.5,0.5-0.8,0.8c-4.9,4.9-7.3,11.3-7.3,17.7c0,6.4,2.4,12.8,7.3,17.7c0.2,0.2,0.5,0.5,0.8,0.7v0
				c-10.9,0-12.9-9.3-14.4-12.3c-1.5-3-5-6.1-5-6.1s3.5-3.1,5-6.1C8.8,29.6,10.9,20.3,21.8,20.3z"/>
			<path style="fill:none;stroke:#c80815;stroke-width:2.1;stroke-linecap:round;stroke-linejoin:round;stroke-miterlimit:10;" d="
				M20.3,55.6L20.3,55.6c0.3,0.3,0.5,0.5,0.8,0.8c4.9,4.9,11.3,7.3,17.7,7.3c6.4,0,12.8-2.4,17.7-7.3c0.2-0.2,0.5-0.5,0.7-0.8h0
				c0,10.9-9.3,12.9-12.3,14.4c-3,1.5-6.1,5-6.1,5s-3.1-3.5-6.1-5C29.6,68.5,20.3,66.5,20.3,55.6z"/>
		</g>
	</g>
	<g>
		<path style="fill:#c80815;" d="M45.1,34.1c0-0.8-0.2-1.5-0.3-2.3c0-0.2,0-0.3,0-0.5c1-0.1,2-0.3,2.9-0.7c0.7-0.2,0.9-1.4,0-1.5
			c-1-0.2-2-0.2-3-0.1c0-0.5,0-0.9,0-1.4c0-1.2-1.8-1.2-1.9,0c-0.1,0.5-0.1,1-0.1,1.5c-1,0.1-1.9,0.2-2.9,0.3c-3,0.2-6,0.1-9,0.4
			c-0.7,0.1-1,1.2-0.2,1.3c2.6,0.4,5.2,0.4,7.9,0.4c1.4,0,2.8,0,4.2,0c0,0.1,0,0.2,0,0.4c0.1,0.7,0.1,1.6,0.3,2.3
			c-1.5,0.3-2.9,1-3.7,1.8c-1.4,1.5-2.9-0.4-4.8-0.4c-1.9,0-3.2,0.6-4.5,2.1c-2.8,3.4-0.1,8.1,2.9,10.1c0.7,0.5,1.8-0.5,1.2-1.2
			c-1.6-2.3-3.5-3.9-2.9-7c0.9-5.1,4.3-1.9,6.1-1.6c0.1,0,1.2,0.3,1.5,0.1c1.7-1,3.3-2.5,5-2.2c0.1,0.1,0.3,0.1,0.4,0.1
			c0.5,0.2,1.1,0.5,1.7,1.2c2.6,2.8-1.2,6.4-3,8.4c-0.5,0.6,0.3,1.4,0.9,0.9c3.1-2.9,4.7-6,3.6-10.2C47.3,35,46.3,34.3,45.1,34.1z"
			/>
		<path style="fill:#c80815;" d="M43.1,40.7c-2.8-0.6-5.8-0.3-8.6-0.2c-0.8,0-1.4,0.9-0.9,1.6c1.4,2,2.8,3.8,4.3,5.7
			c-0.2,0.6,0.5,1.1,0.9,0.6c2-1.8,3.4-4.3,4.7-6.6C43.8,41.4,43.6,40.8,43.1,40.7z M38.7,46.3c-0.7-1.3-1.5-2.6-2.4-3.9
			c0.7-0.1,1.4-0.1,2.1-0.2c1-0.1,2.1-0.3,3.1-0.3C40.7,43.4,39.6,44.8,38.7,46.3z"/>
	</g>
</g>
</svg>
