<?xml version="1.0" encoding="utf-8"?>
<!-- Generator: Adobe Illustrator 27.2.0, SVG Export Plug-In . SVG Version: 6.00 Build 0)  -->
<svg version="1.1" id="Layer_1" xmlns="http://www.w3.org/2000/svg" xmlns:xlink="http://www.w3.org/1999/xlink" x="0px" y="0px"
	 width="85.5px" height="85.4px" viewBox="0 0 85.5 85.4" style="enable-background:new 0 0 85.5 85.4;" xml:space="preserve">
<g>
	<g>
		
			<circle style="fill:none;stroke:#9966cc;stroke-width:2.1;stroke-linecap:round;stroke-linejoin:round;stroke-miterlimit:10;" cx="42.7" cy="42.3" r="19.7"/>
		<path style="fill:none;stroke:#9966cc;stroke-width:2.1;stroke-linecap:round;stroke-linejoin:round;stroke-miterlimit:10;" d="
			M67.7,42.7c0,11.4-7.6,21-18,24c-2.2,0.6-4.5,1-6.9,1c-2.4,0-4.7-0.3-6.9-1c-10.4-3-18-12.6-18-24s7.6-21,18-24
			c2.2-0.6,4.5-1,6.9-1c2.4,0,4.7,0.3,6.9,1C60.1,21.7,67.7,31.3,67.7,42.7z"/>
		<g>
			<g>
				<path style="fill:none;stroke:#9966cc;stroke-width:2.1;stroke-linecap:round;stroke-linejoin:round;stroke-miterlimit:10;" d="
					M35.8,18.7c0.7-5.9,3.6-7.3,4.6-8.3c1.1-1.1,2.3-3.7,2.3-3.7s1.2,2.6,2.3,3.7c1,1,3.9,2.3,4.6,8.3"/>
			</g>
			<g>
				<path style="fill:none;stroke:#9966cc;stroke-width:2.1;stroke-linecap:round;stroke-linejoin:round;stroke-miterlimit:10;" d="
					M49.7,66.7C49,72.7,46.1,74,45.1,75c-1.2,1.1-2.3,3.7-2.3,3.7s-1.2-2.6-2.3-3.7c-1-1-3.9-2.3-4.6-8.3"/>
				<path style="fill:none;stroke:#9966cc;stroke-width:2.1;stroke-linecap:round;stroke-linejoin:round;stroke-miterlimit:10;" d="
					M35.8,66.7"/>
				<path style="fill:none;stroke:#9966cc;stroke-width:2.1;stroke-linecap:round;stroke-linejoin:round;stroke-miterlimit:10;" d="
					M49.7,66.7"/>
			</g>
		</g>
		<g>
			<g>
				<path style="fill:none;stroke:#9966cc;stroke-width:2.1;stroke-linecap:round;stroke-linejoin:round;stroke-miterlimit:10;" d="
					M66.7,35.8c5.9,0.7,7.3,3.6,8.3,4.6c1.1,1.1,3.7,2.3,3.7,2.3s-2.6,1.2-3.7,2.3c-1,1-2.3,3.9-8.3,4.6"/>
			</g>
			<g>
				<path style="fill:none;stroke:#9966cc;stroke-width:2.1;stroke-linecap:round;stroke-linejoin:round;stroke-miterlimit:10;" d="
					M18.7,49.7c-5.9-0.7-7.3-3.6-8.3-4.6c-1.1-1.2-3.7-2.3-3.7-2.3s2.6-1.2,3.7-2.3c1-1,2.3-3.9,8.3-4.6"/>
				<path style="fill:none;stroke:#9966cc;stroke-width:2.1;stroke-linecap:round;stroke-linejoin:round;stroke-miterlimit:10;" d="
					M18.7,35.8"/>
				<path style="fill:none;stroke:#9966cc;stroke-width:2.1;stroke-linecap:round;stroke-linejoin:round;stroke-miterlimit:10;" d="
					M18.7,49.7"/>
			</g>
		</g>
		<g>
			<g>
				<path style="fill:none;stroke:#9966cc;stroke-width:2.1;stroke-linecap:round;stroke-linejoin:round;stroke-miterlimit:10;" d="
					M49,18.5c3.6-4.8,6.8-4.4,8.2-4.7c1.6-0.4,3.9-2,3.9-2s-0.3,2.8,0.1,4.4c0.4,1.4,2.2,4-0.3,9.4"/>
			</g>
			<g>
				<path style="fill:none;stroke:#9966cc;stroke-width:2.1;stroke-linecap:round;stroke-linejoin:round;stroke-miterlimit:10;" d="
					M36.4,66.9c-3.6,4.8-6.8,4.4-8.2,4.7c-1.6,0.4-3.9,2-3.9,2s0.3-2.8-0.1-4.4c-0.4-1.4-2.2-4,0.3-9.4"/>
				<path style="fill:none;stroke:#9966cc;stroke-width:2.1;stroke-linecap:round;stroke-linejoin:round;stroke-miterlimit:10;" d="
					M24.5,59.8"/>
				<path style="fill:none;stroke:#9966cc;stroke-width:2.1;stroke-linecap:round;stroke-linejoin:round;stroke-miterlimit:10;" d="
					M36.4,66.9"/>
			</g>
		</g>
		<g>
			<g>
				<path style="fill:none;stroke:#9966cc;stroke-width:2.1;stroke-linecap:round;stroke-linejoin:round;stroke-miterlimit:10;" d="
					M60.5,25.2c5.5-2.3,8.1-0.3,9.4,0.1c1.5,0.5,4.4,0.3,4.4,0.3s-1.7,2.3-2.1,3.8c-0.4,1.4-0.1,4.6-5.1,8"/>
			</g>
			<g>
				<path style="fill:none;stroke:#9966cc;stroke-width:2.1;stroke-linecap:round;stroke-linejoin:round;stroke-miterlimit:10;" d="
					M25,60.3c-5.5,2.3-8.1,0.3-9.4-0.1c-1.5-0.5-4.4-0.3-4.4-0.3s1.7-2.3,2.1-3.8c0.4-1.4,0.1-4.6,5.1-8"/>
				<path style="fill:none;stroke:#9966cc;stroke-width:2.1;stroke-linecap:round;stroke-linejoin:round;stroke-miterlimit:10;" d="
					M18.3,48.1"/>
				<path style="fill:none;stroke:#9966cc;stroke-width:2.1;stroke-linecap:round;stroke-linejoin:round;stroke-miterlimit:10;" d="
					M25,60.3"/>
			</g>
		</g>
		<g>
			<g>
				<path style="fill:none;stroke:#9966cc;stroke-width:2.1;stroke-linecap:round;stroke-linejoin:round;stroke-miterlimit:10;" d="
					M36.4,18.5c-3.6-4.8-6.8-4.4-8.2-4.7c-1.6-0.4-3.9-2-3.9-2s0.3,2.8-0.1,4.4c-0.4,1.4-2.2,4,0.3,9.4"/>
			</g>
			<g>
				<path style="fill:none;stroke:#9966cc;stroke-width:2.1;stroke-linecap:round;stroke-linejoin:round;stroke-miterlimit:10;" d="
					M49,66.9c3.6,4.8,6.8,4.4,8.2,4.7c1.6,0.4,3.9,2,3.9,2s-0.3-2.8,0.1-4.4c0.4-1.4,2.2-4-0.3-9.4"/>
				<path style="fill:none;stroke:#9966cc;stroke-width:2.1;stroke-linecap:round;stroke-linejoin:round;stroke-miterlimit:10;" d="
					M60.9,59.8"/>
				<path style="fill:none;stroke:#9966cc;stroke-width:2.1;stroke-linecap:round;stroke-linejoin:round;stroke-miterlimit:10;" d="
					M49,66.9"/>
			</g>
		</g>
		<g>
			<g>
				<path style="fill:none;stroke:#9966cc;stroke-width:2.1;stroke-linecap:round;stroke-linejoin:round;stroke-miterlimit:10;" d="
					M25,25.2c-5.5-2.3-8.1-0.3-9.4,0.1c-1.5,0.5-4.4,0.3-4.4,0.3s1.7,2.3,2.1,3.8c0.4,1.4,0.1,4.6,5.1,8"/>
			</g>
			<g>
				<path style="fill:none;stroke:#9966cc;stroke-width:2.1;stroke-linecap:round;stroke-linejoin:round;stroke-miterlimit:10;" d="
					M60.5,60.3c5.5,2.3,8.1,0.3,9.4-0.1c1.5-0.5,4.4-0.3,4.4-0.3s-1.7-2.3-2.1-3.8c-0.4-1.4-0.1-4.6-5.1-8"/>
				<path style="fill:none;stroke:#9966cc;stroke-width:2.1;stroke-linecap:round;stroke-linejoin:round;stroke-miterlimit:10;" d="
					M67.1,48.1"/>
				<path style="fill:none;stroke:#9966cc;stroke-width:2.1;stroke-linecap:round;stroke-linejoin:round;stroke-miterlimit:10;" d="
					M60.5,60.3"/>
			</g>
		</g>
		<g>
			<g>
				<g>
					
						<path style="fill:none;stroke:#9966cc;stroke-width:2.1;stroke-linecap:round;stroke-linejoin:round;stroke-miterlimit:10;" d="
						M28.4,18.5L28.4,18.5c0-9.2,7.2-10.9,9.6-12.2c2.3-1.3,4.8-4.2,4.8-4.2s2.4,2.9,4.8,4.2c2.3,1.3,9.6,3,9.6,12.2h0"/>
				</g>
				<g>
					
						<path style="fill:none;stroke:#9966cc;stroke-width:2.1;stroke-linecap:round;stroke-linejoin:round;stroke-miterlimit:10;" d="
						M57.1,67L57.1,67c0,9.2-7.2,10.9-9.6,12.2c-2.3,1.3-4.8,4.2-4.8,4.2s-2.4-2.9-4.8-4.2c-2.3-1.3-9.6-3-9.6-12.2h0"/>
				</g>
			</g>
			<g>
				<g>
					
						<path style="fill:none;stroke:#9966cc;stroke-width:2.1;stroke-linecap:round;stroke-linejoin:round;stroke-miterlimit:10;" d="
						M57.2,18.5L57.2,18.5c8.1-4.4,13,1.1,15.3,2.6c2.2,1.5,6,2.2,6,2.2S77,26.8,77,29.5c0,2.5,1.7,8.9-4.6,13.4"/>
				</g>
				<g>
					
						<path style="fill:none;stroke:#9966cc;stroke-width:2.1;stroke-linecap:round;stroke-linejoin:round;stroke-miterlimit:10;" d="
						M28.3,66.9L28.3,66.9c-8.1,4.4-13-1.1-15.3-2.6c-2.2-1.5-6-2.2-6-2.2s1.4-3.5,1.4-6.2c0-2.5-1.7-8.8,4.5-13.3"/>
				</g>
			</g>
			<g>
				<g>
					
						<path style="fill:none;stroke:#9966cc;stroke-width:2.1;stroke-linecap:round;stroke-linejoin:round;stroke-miterlimit:10;" d="
						M28.3,18.5L28.3,18.5c-8.1-4.4-13,1.1-15.3,2.6c-2.2,1.5-6,2.2-6,2.2s1.4,3.5,1.4,6.2c0,2.5-1.7,8.9,4.5,13.3"/>
				</g>
				<g>
					
						<path style="fill:none;stroke:#9966cc;stroke-width:2.1;stroke-linecap:round;stroke-linejoin:round;stroke-miterlimit:10;" d="
						M57.2,66.9L57.2,66.9c8.1,4.4,13-1.1,15.3-2.6c2.2-1.5,6-2.2,6-2.2S77,58.7,77,56c0-2.5,1.7-8.9-4.5-13.3"/>
				</g>
			</g>
		</g>
	</g>
	<g>
		<path style="fill:#9966cc;" d="M50.4,40.4c-0.8-0.2-1.5-0.2-2.3-0.1c0.1-0.1,0.1-0.2,0.2-0.3c0.7-0.3,1.2-0.9,1.7-1.7
			c0.5-0.9-0.5-2.2-1.5-1.5c-0.7,0.5-1.3,1.1-1.8,1.8c-1.3-0.1-2.9-1.8-3.2-2.7c-0.2-0.6-1.3-0.5-1.2,0.2c0.2,2,1.7,3.5,3.4,4
			c-0.4,0.8-0.8,1.6-1.2,2.5c-0.4,1,1.1,1.8,1.8,1.1c0.8-0.8,3.6-2.9,3.8,0.1c0.1,1.1-0.2,2.1-1,3c-1.2,0.9-3,0.6-3.8-0.8
			c-0.4-0.7-1.2-0.5-1.5,0.1c-0.5-1.4-1.4-2.2-2.6-2.8c1.5-1.2,2.2-2.9,0.6-4.9c-0.9-1.1-2.6-1.4-3.9-1c-1.2,0.4-1.5,2-2.2,3
			c-0.3,0.5,0.3,1.1,0.8,0.8c0.4-0.3,0.8-0.5,1.1-0.9c0.5-1,1.4-1.3,2.7-0.9c0.2,0.7,0.5,1.3,0.7,2c-0.6,0.7-1.4,1.2-2.3,1.4
			c-0.8,0.3-0.9,1.6,0,1.7c1.2,0.2,2.2,0.5,3,1.6c1.6,2.2-1.4,2.7-2.3,2.8c-2.1,0.2-3.8-1.6-4-3.5c-0.1-0.8-1.3-0.8-1.6-0.2
			c-0.9,1.7,0,3.5,1.6,4.5c2.1,1.3,4,1.6,6.3,0.9c1.1-0.4,2.2-1.4,2.4-2.6c0.6,1.2,2,1.9,3.5,1.6c2.2-0.4,3.8-1.5,4.4-3.7
			C52.3,44.2,52.3,41,50.4,40.4z"/>
		<path style="fill:#9966cc;" d="M45.6,34.6c-1.5,0-1.5,2.4,0,2.4C47.1,37,47.1,34.6,45.6,34.6z"/>
	</g>
</g>
</svg>
