<?xml version="1.0" encoding="utf-8"?>
<!-- Generator: Adobe Illustrator 27.2.0, SVG Export Plug-In . SVG Version: 6.00 Build 0)  -->
<svg version="1.1" id="Layer_1" xmlns="http://www.w3.org/2000/svg" xmlns:xlink="http://www.w3.org/1999/xlink" x="0px" y="0px"
	 width="77.4px" height="77.3px" viewBox="0 0 77.4 77.3" style="enable-background:new 0 0 77.4 77.3;" xml:space="preserve">
<g>
	<g>
		
			<circle style="fill:none;stroke:#ff6700;stroke-width:2.1;stroke-linecap:round;stroke-linejoin:round;stroke-miterlimit:10;" cx="38.7" cy="38.2" r="19.7"/>
		
			<circle style="fill:none;stroke:#ff6700;stroke-width:2.1;stroke-linecap:round;stroke-linejoin:round;stroke-miterlimit:10;" cx="38.7" cy="38.7" r="25"/>
		<g>
			<g>
				<path style="fill:none;stroke:#ff6700;stroke-width:2.1;stroke-linecap:round;stroke-linejoin:round;stroke-miterlimit:10;" d="
					M26,17.2L26,17.2c0-8.1,6.4-9.7,8.5-10.8c2.1-1.1,4.2-3.7,4.2-3.7s2.1,2.6,4.2,3.7c2.1,1.1,8.5,2.6,8.5,10.8h0"/>
			</g>
			<g>
				<path style="fill:none;stroke:#ff6700;stroke-width:2.1;stroke-linecap:round;stroke-linejoin:round;stroke-miterlimit:10;" d="
					M51.4,60.2L51.4,60.2c0,8.1-6.4,9.7-8.5,10.8c-2.1,1.1-4.2,3.7-4.2,3.7s-2.1-2.6-4.2-3.7c-2.1-1.1-8.5-2.6-8.5-10.8h0"/>
			</g>
		</g>
		<g>
			<g>
				<path style="fill:none;stroke:#ff6700;stroke-width:2.1;stroke-linecap:round;stroke-linejoin:round;stroke-miterlimit:10;" d="
					M51.4,17.2L51.4,17.2c7.1-3.9,11.5,1,13.5,2.3c2,1.3,5.3,1.9,5.3,1.9S69,24.6,69,26.9c0,2.4,1.8,8.7-5.4,12.6l0,0"/>
			</g>
			<g>
				<path style="fill:none;stroke:#ff6700;stroke-width:2.1;stroke-linecap:round;stroke-linejoin:round;stroke-miterlimit:10;" d="
					M25.9,60.1L25.9,60.1c-7.1,3.9-11.5-1-13.5-2.3c-2-1.3-5.3-1.9-5.3-1.9s1.3-3.1,1.2-5.5c0-2.4-1.8-8.7,5.4-12.6l0,0"/>
			</g>
		</g>
		<g>
			<g>
				<path style="fill:none;stroke:#ff6700;stroke-width:2.1;stroke-linecap:round;stroke-linejoin:round;stroke-miterlimit:10;" d="
					M25.9,17.2L25.9,17.2c-7.1-3.9-11.5,1-13.5,2.3c-2,1.3-5.3,1.9-5.3,1.9s1.3,3.1,1.2,5.5c0,2.4-1.8,8.7,5.4,12.6l0,0"/>
			</g>
			<g>
				<path style="fill:none;stroke:#ff6700;stroke-width:2.1;stroke-linecap:round;stroke-linejoin:round;stroke-miterlimit:10;" d="
					M51.4,60.1L51.4,60.1c7.1,3.9,11.5-1,13.5-2.3c2-1.3,5.3-1.9,5.3-1.9S69,52.8,69,50.4c0-2.4,1.8-8.7-5.4-12.6l0,0"/>
			</g>
		</g>
	</g>
	<g>
		<path style="fill:#ff6700;" d="M47.2,30.7c-5.6-0.1-11.4,0.1-17,0.5c-0.8,0.1-0.8,1.1,0,1.2c4.1,0.4,8.4,0.6,12.6,0.5
			c-0.2,1.4-0.2,2.8-0.2,4.2c-2-2-4.8-3.1-7.7-2.4c-3.4,0.8-6.6,3.2-5.3,7c1.1,3.3,5.1,5.1,8.3,5.2c1.6,0,3.7-0.9,5-2.2
			c0.2,2,0.5,4,1.3,5.9c0.2,0.4,0.7,0.3,0.8-0.1c0.6-2.8,0.2-5.7,0.1-8.5c-0.1-3,0-6.1-0.3-9.1c0.8,0,1.6-0.1,2.3-0.1
			C48.4,32.6,48.4,30.7,47.2,30.7z M39,44.3c-2.2,0.8-4.6-0.5-6.2-1.9c-3.5-3.2,1-5.7,4-5.9c2.3-0.1,4.4,1.3,5.9,3
			c0,0.5,0,1.1,0.1,1.6C41.4,42.2,40.8,43.7,39,44.3z"/>
		<path style="fill:#ff6700;" d="M44,26.7c-2,0-2,3.1,0,3.1S46,26.7,44,26.7z"/>
	</g>
</g>
</svg>
