<?xml version="1.0" encoding="utf-8"?>
<!-- Generator: Adobe Illustrator 27.2.0, SVG Export Plug-In . SVG Version: 6.00 Build 0)  -->
<svg version="1.1" id="Layer_1" xmlns="http://www.w3.org/2000/svg" xmlns:xlink="http://www.w3.org/1999/xlink" x="0px" y="0px"
	 width="77.4px" height="77.3px" viewBox="0 0 77.4 77.3" style="enable-background:new 0 0 77.4 77.3;" xml:space="preserve">
<g>
	<g>
		<g>
			
				<circle style="fill:none;stroke:#02BEE6;stroke-width:2.1;stroke-linecap:round;stroke-linejoin:round;stroke-miterlimit:10;" cx="38.7" cy="38.2" r="19.7"/>
			<path style="fill:none;stroke:#02BEE6;stroke-width:2.1;stroke-linecap:round;stroke-linejoin:round;stroke-miterlimit:10;" d="
				M63.7,38.7c0,11.4-7.6,21-18,24c-2.2,0.6-4.5,1-6.9,1c-2.4,0-4.7-0.3-6.9-1c-10.4-3-18-12.6-18-24s7.6-21,18-24
				c2.2-0.6,4.5-1,6.9-1c2.4,0,4.7,0.3,6.9,1C56,17.7,63.7,27.3,63.7,38.7z"/>
			<g>
				<g>
					
						<path style="fill:none;stroke:#02BEE6;stroke-width:2.1;stroke-linecap:round;stroke-linejoin:round;stroke-miterlimit:10;" d="
						M33.8,14.2c0.5-5.5,2.5-6.8,3.2-7.8c0.8-1.1,1.7-3.7,1.7-3.7s0.8,2.6,1.7,3.7c0.7,1,2.7,2.2,3.2,7.8"/>
					
						<path style="fill:none;stroke:#02BEE6;stroke-width:2.1;stroke-linecap:round;stroke-linejoin:round;stroke-miterlimit:10;" d="
						M43.6,14.2"/>
					
						<path style="fill:none;stroke:#02BEE6;stroke-width:2.1;stroke-linecap:round;stroke-linejoin:round;stroke-miterlimit:10;" d="
						M33.8,14.2"/>
				</g>
				<g>
					
						<path style="fill:none;stroke:#02BEE6;stroke-width:2.1;stroke-linecap:round;stroke-linejoin:round;stroke-miterlimit:10;" d="
						M43.6,63.2c-0.5,5.5-2.5,6.8-3.2,7.8c-0.8,1.1-1.7,3.7-1.7,3.7S37.8,72,37,70.9c-0.7-1-2.7-2.2-3.2-7.8"/>
				</g>
			</g>
			<g>
				<g>
					
						<path style="fill:none;stroke:#02BEE6;stroke-width:2.1;stroke-linecap:round;stroke-linejoin:round;stroke-miterlimit:10;" d="
						M63.2,33.8c5.5,0.5,6.8,2.5,7.8,3.2c1.1,0.8,3.7,1.7,3.7,1.7s-2.6,0.8-3.7,1.7c-1,0.7-2.2,2.7-7.8,3.2"/>
					
						<path style="fill:none;stroke:#02BEE6;stroke-width:2.1;stroke-linecap:round;stroke-linejoin:round;stroke-miterlimit:10;" d="
						M63.2,43.6"/>
					
						<path style="fill:none;stroke:#02BEE6;stroke-width:2.1;stroke-linecap:round;stroke-linejoin:round;stroke-miterlimit:10;" d="
						M63.2,33.8"/>
				</g>
				<g>
					
						<path style="fill:none;stroke:#02BEE6;stroke-width:2.1;stroke-linecap:round;stroke-linejoin:round;stroke-miterlimit:10;" d="
						M14.2,43.6c-5.5-0.5-6.8-2.5-7.8-3.2c-1.1-0.8-3.7-1.7-3.7-1.7s2.6-0.8,3.7-1.7c1-0.7,2.2-2.7,7.8-3.2"/>
				</g>
			</g>
			<g>
				<g>
					
						<path style="fill:none;stroke:#02BEE6;stroke-width:2.1;stroke-linecap:round;stroke-linejoin:round;stroke-miterlimit:10;" d="
						M52.5,17.9c4.3-3.5,6.6-3,7.8-3.2c1.4-0.2,3.8-1.4,3.8-1.4s-1.2,2.4-1.4,3.8c-0.2,1.2,0.3,3.5-3.2,7.8"/>
					
						<path style="fill:none;stroke:#02BEE6;stroke-width:2.1;stroke-linecap:round;stroke-linejoin:round;stroke-miterlimit:10;" d="
						M59.5,24.8"/>
					
						<path style="fill:none;stroke:#02BEE6;stroke-width:2.1;stroke-linecap:round;stroke-linejoin:round;stroke-miterlimit:10;" d="
						M52.5,17.9"/>
				</g>
				<g>
					
						<path style="fill:none;stroke:#02BEE6;stroke-width:2.1;stroke-linecap:round;stroke-linejoin:round;stroke-miterlimit:10;" d="
						M24.8,59.5c-4.3,3.5-6.6,3-7.8,3.2c-1.4,0.2-3.8,1.4-3.8,1.4s1.2-2.4,1.4-3.8c0.2-1.2-0.3-3.5,3.2-7.8"/>
				</g>
			</g>
			<g>
				<g>
					
						<path style="fill:none;stroke:#02BEE6;stroke-width:2.1;stroke-linecap:round;stroke-linejoin:round;stroke-miterlimit:10;" d="
						M59.5,52.5c3.5,4.3,3,6.6,3.2,7.8c0.2,1.4,1.4,3.8,1.4,3.8s-2.4-1.2-3.8-1.4c-1.2-0.2-3.5,0.3-7.8-3.2"/>
					
						<path style="fill:none;stroke:#02BEE6;stroke-width:2.1;stroke-linecap:round;stroke-linejoin:round;stroke-miterlimit:10;" d="
						M52.5,59.5"/>
					
						<path style="fill:none;stroke:#02BEE6;stroke-width:2.1;stroke-linecap:round;stroke-linejoin:round;stroke-miterlimit:10;" d="
						M59.5,52.5"/>
				</g>
				<g>
					
						<path style="fill:none;stroke:#02BEE6;stroke-width:2.1;stroke-linecap:round;stroke-linejoin:round;stroke-miterlimit:10;" d="
						M17.9,24.8c-3.5-4.3-3-6.6-3.2-7.8c-0.2-1.4-1.4-3.8-1.4-3.8s2.4,1.2,3.8,1.4c1.2,0.2,3.5-0.3,7.8,3.2"/>
				</g>
			</g>
			<g>
				<g>
					
						<path style="fill:none;stroke:#02BEE6;stroke-width:2.1;stroke-linecap:round;stroke-linejoin:round;stroke-miterlimit:10;" d="
						M43.6,14.2c2.6-4.9,5-5.3,6-5.9c1.2-0.7,3-2.8,3-2.8s-0.2,2.7,0.1,4.1c0.3,1.2,1.6,3.1,0,8.4"/>
					
						<path style="fill:none;stroke:#02BEE6;stroke-width:2.1;stroke-linecap:round;stroke-linejoin:round;stroke-miterlimit:10;" d="
						M52.7,18"/>
					
						<path style="fill:none;stroke:#02BEE6;stroke-width:2.1;stroke-linecap:round;stroke-linejoin:round;stroke-miterlimit:10;" d="
						M43.6,14.2"/>
				</g>
				<g>
					
						<path style="fill:none;stroke:#02BEE6;stroke-width:2.1;stroke-linecap:round;stroke-linejoin:round;stroke-miterlimit:10;" d="
						M33.7,63.2c-2.6,4.9-5,5.3-6,5.9c-1.2,0.7-3,2.8-3,2.8s0.2-2.7-0.1-4.1c-0.3-1.2-1.6-3.1,0-8.4"/>
				</g>
			</g>
			<g>
				<g>
					
						<path style="fill:none;stroke:#02BEE6;stroke-width:2.1;stroke-linecap:round;stroke-linejoin:round;stroke-miterlimit:10;" d="
						M63.2,43.6c4.9,2.6,5.3,5,5.9,6c0.7,1.2,2.8,3,2.8,3s-2.7-0.2-4.1,0.1c-1.2,0.3-3.1,1.6-8.4,0"/>
					
						<path style="fill:none;stroke:#02BEE6;stroke-width:2.1;stroke-linecap:round;stroke-linejoin:round;stroke-miterlimit:10;" d="
						M59.4,52.7"/>
					
						<path style="fill:none;stroke:#02BEE6;stroke-width:2.1;stroke-linecap:round;stroke-linejoin:round;stroke-miterlimit:10;" d="
						M63.2,43.6"/>
				</g>
				<g>
					
						<path style="fill:none;stroke:#02BEE6;stroke-width:2.1;stroke-linecap:round;stroke-linejoin:round;stroke-miterlimit:10;" d="
						M14.2,33.7c-4.9-2.6-5.3-5-5.9-6c-0.7-1.2-2.8-3-2.8-3s2.7,0.2,4.1-0.1c1.2-0.3,3.1-1.6,8.4,0"/>
				</g>
			</g>
			<g>
				<g>
					
						<path style="fill:none;stroke:#02BEE6;stroke-width:2.1;stroke-linecap:round;stroke-linejoin:round;stroke-miterlimit:10;" d="
						M33.7,14.2c-2.6-4.9-5-5.3-6-5.9c-1.2-0.7-3-2.8-3-2.8s0.2,2.7-0.1,4.1c-0.3,1.2-1.6,3.1,0,8.4"/>
					
						<path style="fill:none;stroke:#02BEE6;stroke-width:2.1;stroke-linecap:round;stroke-linejoin:round;stroke-miterlimit:10;" d="
						M24.7,18"/>
					
						<path style="fill:none;stroke:#02BEE6;stroke-width:2.1;stroke-linecap:round;stroke-linejoin:round;stroke-miterlimit:10;" d="
						M33.7,14.2"/>
				</g>
				<g>
					
						<path style="fill:none;stroke:#02BEE6;stroke-width:2.1;stroke-linecap:round;stroke-linejoin:round;stroke-miterlimit:10;" d="
						M43.6,63.2c2.6,4.9,5,5.3,6,5.9c1.2,0.7,3,2.8,3,2.8s-0.2-2.7,0.1-4.1c0.3-1.2,1.6-3.1,0-8.4"/>
				</g>
			</g>
			<g>
				<g>
					
						<path style="fill:none;stroke:#02BEE6;stroke-width:2.1;stroke-linecap:round;stroke-linejoin:round;stroke-miterlimit:10;" d="
						M14.2,43.6c-4.9,2.6-5.3,5-5.9,6c-0.7,1.2-2.8,3-2.8,3s2.7-0.2,4.1,0.1c1.2,0.3,3.1,1.6,8.4,0"/>
					
						<path style="fill:none;stroke:#02BEE6;stroke-width:2.1;stroke-linecap:round;stroke-linejoin:round;stroke-miterlimit:10;" d="
						M18,52.7"/>
					
						<path style="fill:none;stroke:#02BEE6;stroke-width:2.1;stroke-linecap:round;stroke-linejoin:round;stroke-miterlimit:10;" d="
						M14.2,43.6"/>
				</g>
				<g>
					
						<path style="fill:none;stroke:#02BEE6;stroke-width:2.1;stroke-linecap:round;stroke-linejoin:round;stroke-miterlimit:10;" d="
						M63.2,33.7c4.9-2.6,5.3-5,5.9-6c0.7-1.2,2.8-3,2.8-3s-2.7,0.2-4.1-0.1c-1.2-0.3-3.1-1.6-8.4,0"/>
				</g>
			</g>
		</g>
	</g>
	<g>
		<path style="fill:#02BEE6;" d="M45.5,31.4c-2.1-0.3-4.2,0.1-6.3,0.1c-2.4,0-4.9-0.3-7.4-0.1c-1.1,0.1-1.4,1.6-0.3,2
			c2.1,0.7,4.4,0.7,6.6,0.7c1.1,0,2.4,0.1,3.6,0c0,0.6,0.1,1.3,0.1,1.9c-2.3-0.2-4.7-0.2-7-0.2c-0.7,0-1.1,0.5-1.1,1.1
			c-0.2,2.6-0.2,5.1,0,7.6c-0.3,1-0.2,2.1,0.3,3c0,0.1,0.1,0.2,0.1,0.2c0,0,0,0,0,0c0.1,0.3,0.2,0.6,0.5,0.7c0.6,0.7,1.3,1.2,2.2,1
			c0.4-0.1,0.5-0.4,0.6-0.7c0.2-1.4-1.6-2.1-1.2-3.6c0.5-1.6,3.2-1.9,4.6-2.1c0.9-0.1,1.2-1.4,0.2-1.6c-1.8-0.4-3.7-0.4-5.1,0.5
			c0-1.3,0-2.6,0-4c2.2-0.1,4.5-0.2,6.7-0.4c0.4,0,0.8-0.3,0.7-0.7c-0.1-1-0.2-1.9-0.3-2.9c0.9-0.1,1.9-0.3,2.7-0.6
			C47,33.1,46.7,31.6,45.5,31.4z"/>
		<path style="fill:#02BEE6;" d="M37.6,28L37.6,28c-1.1,1.1,0.5,2.8,1.6,1.7l0.1-0.1C40.3,28.6,38.6,26.9,37.6,28z"/>
	</g>
</g>
</svg>
